<svg xmlns="http://www.w3.org/2000/svg" xmlns:xlink="http://www.w3.org/1999/xlink" data-name="Layer 1" viewBox="0 0 2000 2000"><defs><linearGradient id="a" x1="1930.48" x2="4771.1" y1="1015.04" y2="1015.04" gradientUnits="userSpaceOnUse"><stop offset="0" stop-color="#fff"/><stop offset="1" stop-color="#d4dbea"/></linearGradient><linearGradient id="f" x1="1885.29" x2="3346.77" y1="1075.18" y2="1075.18" gradientTransform="translate(47.16)" gradientUnits="userSpaceOnUse"><stop offset="0" stop-color="#33308e"/><stop offset="1" stop-color="#6669b0"/></linearGradient><linearGradient id="c" x1="1928.35" x2="2289.74" y1="1332.53" y2="1332.53" gradientTransform="translate(47.16)" gradientUnits="userSpaceOnUse"><stop offset="0" stop-color="#fbad18"/><stop offset="1" stop-color="#f47820"/></linearGradient><linearGradient id="g" x1="-93.24" x2="2228.28" y1="1597.17" y2="605.32" xlink:href="#a"/><linearGradient id="h" x1="-392.15" x2="1929.35" y1="897.53" y2="-94.31" xlink:href="#a"/><linearGradient id="b" x1="1289.64" x2="1468.78" y1="1280.09" y2="1280.09" gradientUnits="userSpaceOnUse"><stop offset="0" stop-color="#6669b0"/><stop offset="1" stop-color="#33308e"/></linearGradient><linearGradient id="i" x1="1124.1" x2="1256.4" y1="1479.73" y2="1479.73" xlink:href="#b"/><linearGradient id="j" x1="166.06" x2="555.52" y1="651.75" y2="651.75" xlink:href="#b"/><linearGradient id="k" x1="1444.79" x2="1822.08" y1="595.52" y2="595.52" gradientTransform="rotate(-180 1633.44 595.525)" xlink:href="#c"/><linearGradient id="l" x1="537.73" x2="1316.97" y1="1240.94" y2="1240.94" xlink:href="#c"/><linearGradient id="m" x1="258.05" x2="619.44" y1="1497.39" y2="1497.39" xlink:href="#c"/><linearGradient id="n" x1="1315.54" x2="1678.23" y1="1116.31" y2="1116.31" xlink:href="#c"/><linearGradient id="o" x1="434.43" x2="816.49" y1="1350.9" y2="1041.97" xlink:href="#c"/><linearGradient id="p" x1="419.41" x2="801.48" y1="1332.33" y2="1023.4" xlink:href="#c"/><linearGradient id="q" x1="8139.41" x2="8455.28" y1="617.68" y2="617.68" gradientTransform="matrix(-1 .09 .09 1 8817.02 -433.15)" gradientUnits="userSpaceOnUse"><stop offset="0" stop-color="#ffd10a"/><stop offset="1" stop-color="#f47521"/></linearGradient><linearGradient id="r" x1="366.68" x2="689.43" y1="825.49" y2="825.49" gradientTransform="matrix(1 -.09 .09 1 285.62 363.76)" xlink:href="#a"/><linearGradient id="s" x1="350.18" x2="732.23" y1="1246.7" y2="937.77" xlink:href="#c"/><linearGradient id="t" x1="741.05" x2="1306.03" y1="273.07" y2="273.07" xlink:href="#b"/><linearGradient id="u" x1="802.33" x2="820.99" y1="273.07" y2="273.07" xlink:href="#c"/><linearGradient id="v" x1="789.41" x2="905.27" y1="399.3" y2="399.3" xlink:href="#c"/><linearGradient id="w" x1="1100.46" x2="1133.29" y1="445.14" y2="445.14" xlink:href="#c"/><linearGradient id="x" x1="1237.59" x2="1270.42" y1="420.44" y2="420.44" xlink:href="#c"/><linearGradient id="y" x1="1094.42" x2="1265.92" y1="377.94" y2="377.94" xlink:href="#c"/><linearGradient id="z" x1="1246.95" x2="1271.73" y1="337.38" y2="337.38" xlink:href="#c"/><linearGradient id="A" x1="810.49" x2="1225.46" y1="584.31" y2="584.31" xlink:href="#c"/><linearGradient id="B" x1="807.44" x2="1065.71" y1="524.51" y2="524.51" xlink:href="#c"/><clipPath id="d"><path fill="none" d="M3624.59,790.22c-174.24-52.9-324.46-127.66-494.67-335.1s-627.65-143.61-760.63,167.55-37.23,598.4,122.34,651.59,228,105.27,316.15,309.36c70.68,163.73,463.59,242.58,585.33,84.68,222.67-288.77,228.83-176,335.21-391.38S3803.56,844.55,3624.59,790.22Z"/></clipPath><clipPath id="e"><path fill="none" d="M3493.39,1050.85,3383.13,668.7l-266.67-30.42,0-174.93a59.55,59.55,0,0,0-59.54-59.54l-563.79.07a59.57,59.57,0,0,0-59.54,59.62l.15,1113.13a59.74,59.74,0,0,0,59.62,59.62l563.79-.08a59.55,59.55,0,0,0,59.46-59.62v-42.61l293-114.17Z" data-name="SVGID"/></clipPath></defs><g clip-path="url(#d)"><rect width="1380.35" height="1573.84" x="1936.02" y="225.29" fill="#fff" opacity=".35"/><path fill="url(#a)" d="M4771.1,509.18v-18h-49.59V207.3h-2791v36h30.07V256h890.17V491.17H1930.48v18h920.24V971.36H1930.48v18h920.24v462.18H1930.48v18h920.24v301.15H1960.83v10.42h-30.35v41.66h2791v-3.35h0V1469.56h49.59v-18h-49.59V989.37h49.59v-18h-49.59V509.18ZM3341.16,989.37h429.92v462.18H3341.16Zm0-18V509.18h429.92V971.36Zm0-480.19V256h429.92V491.17Zm0,978.39h429.92v301.15H3341.31v10.42h-.15Zm460.12,301.15V1469.56H4231.2v301.15Zm0-319.16V989.37H4231.2v462.18Zm0-480.19V509.18H4231.2V971.36Zm0-480.19V256H4231.2V491.17ZM4261.39,256h429.93V491.17H4261.39Zm-1380.47,0h429.92V491.17H2880.92Zm0,253.16h429.92V971.36H2880.92Zm0,480.19h429.92v462.18H2880.92Zm0,480.19h429.92v311.57h-.17v-10.42H2880.92Zm1810.4,311.57h-.17v-10.42H4261.39V1469.56h429.93Zm0-329.58H4261.39V989.37h429.93Zm0-480.19H4261.39V509.18h429.93Z"/></g><g clip-path="url(#e)"><path fill="#2a276f" d="M3098.54,664.76a44.69,44.69,0,0,0-7.64-.48h-.6C3048,665.49,2858.87,683,2720.49,894.9,2582.11,683,2393,665.45,2350.74,664.24h-.06c-.2,0-8.25.52-8.25.52-196.73,14.47-352.68,193.13-352.68,410.7s155.95,396.15,352.65,410.63l8.28,0c42.27-1.17,231.43-18.66,369.81-230.59C2858.87,1467.46,3048,1485,3090.3,1486.12l8.27,0c196.71-14.48,352.65-193.13,352.65-410.63S3295.28,679.23,3098.54,664.76Zm-470.62,423.06C2530.73,1297.33,2374.71,1312,2349.25,1313c-112.06-10.52-200.33-113-200.33-237.58,0-125.09,89-228,201.76-237.8v-.2c29.38,1.49,181.7,19.25,277.24,225.16l5.82,12.6ZM3091.73,1313c-25.47-1-181.48-15.71-278.67-225.22l-5.82-12.6,5.82-12.6C2908.59,856.71,3060.92,839,3090.3,837.46v.2c112.76,9.77,201.76,112.71,201.76,237.8C3292.06,1200,3203.79,1302.52,3091.73,1313Z"/><path fill="url(#f)" d="M3041.24,664.76a44.69,44.69,0,0,0-7.64-.48h-.6c-42.28,1.21-231.43,18.69-369.81,230.62C2524.81,683,2335.72,665.45,2293.44,664.24h-.06c-.19,0-8.25.52-8.25.52-196.73,14.47-352.68,193.13-352.68,410.7s156,396.15,352.65,410.63l8.28,0c42.27-1.17,231.43-18.66,369.81-230.59C2801.57,1467.46,2990.72,1485,3033,1486.12l8.27,0c196.7-14.48,352.66-193.13,352.66-410.63S3238,679.23,3041.24,664.76Zm-470.62,423.06C2473.43,1297.33,2317.41,1312,2292,1313c-112.06-10.52-200.33-113-200.33-237.58,0-125.09,89-228,201.76-237.8v-.2c29.38,1.49,181.7,19.25,277.24,225.16l5.82,12.6ZM3034.43,1313c-25.47-1-181.48-15.71-278.67-225.22l-5.83-12.6,5.83-12.6C2851.29,856.71,3003.62,839,3033,837.46v.2c112.75,9.77,201.76,112.71,201.76,237.8C3234.76,1200,3146.48,1302.52,3034.43,1313Z"/><path fill="url(#c)" d="M2292,1313l45,81.34-43.52,91.74s-206.52,2.29-317.87-220.14l88.68-6.63,49.18-80.41S2157.83,1296.57,2292,1313Z"/></g><path fill="url(#g)" d="M1128.73,307.6C914.18,349.87,804.65,592.85,459.16,809.06S189.73,1869.54,735.38,1731.85C1255.93,1600.48,1280,1610.86,1621,1623,2047.67,1638.16,1807.66,173.85,1128.73,307.6Z"/><path fill="url(#h)" d="M546.86,663.8c100.7-80.13,184.55-220,136.87-354.69S537.6,425.16,458.38,508.7C343.74,629.58,336.14,831.48,546.86,663.8Z"/><rect width="1488.8" height="10.37" x="297.57" y="1746.93" fill="#cbd3eb"/><polygon fill="#33308e" points="1332.47 1747.27 1337.51 1747.16 1330.33 1591.26 1325.28 1591.37 1332.47 1747.27"/><path fill="#33308e" d="M1216.42,1582.3c0-10.7,69.77-11.53,91.15-11.53s91.15.83,91.15,11.53-69.76,11.53-91.15,11.53S1216.42,1593,1216.42,1582.3Zm91.15-6.49c-47,0-77.43,3.54-84.86,6.49,7.43,3,37.91,6.49,84.86,6.49s77.43-3.53,84.86-6.49C1385,1579.35,1354.52,1575.81,1307.57,1575.81Z"/><path fill="#cbd3eb" d="M1393.67,1501.1a92.77,92.77,0,1,1-172.2,0Z"/><path fill="#c0c9e7" d="M1221.47,1501.1c0,7.52,38.55,13.63,86.1,13.63s86.1-6.11,86.1-13.63-38.55-13.64-86.1-13.64S1221.47,1493.56,1221.47,1501.1Z"/><path fill="#84605a" d="M1230,1501.1c0,5.56,34.75,10.07,77.62,10.07s77.62-4.51,77.62-10.07-34.75-10.09-77.62-10.09S1230,1495.52,1230,1501.1Z"/><path fill="#fff" d="M1229.91,1532.39c.21-6.94,11-7,10.81,0-.49,16.5,1.64,32.95,13.55,45.34,4.83,5-2.81,12.67-7.64,7.64C1232.76,1571,1229.33,1551.79,1229.91,1532.39Z" opacity=".42"/><path fill="#33308e" d="M1307.57,1593.83c21.39,0,91.15-.83,91.15-11.53h-5a1.29,1.29,0,0,1,.28-.86c-3,3.08-34.77,7.35-86.39,7.35s-83.34-4.27-86.39-7.35a1.29,1.29,0,0,1,.28.86h-5C1216.42,1593,1286.19,1593.83,1307.57,1593.83Z"/><polygon fill="#33308e" points="1411.72 1747.17 1416.75 1746.82 1397.49 1583.63 1392.45 1583.98 1411.72 1747.17"/><polygon fill="#33308e" points="1207.87 1747.18 1223.99 1584.63 1218.96 1584.25 1202.84 1746.81 1207.87 1747.18"/><rect width="155.88" height="5.04" x="1215.39" y="1666.71" fill="#33308e" transform="rotate(-88.83 1293.317 1669.227)"/><path fill="#cbd3eb" d="M1230,1501.11c0,4.1,18.66,7.6,45.53,9.17,1.57.09,3.18.18,4.84.23,2.25.14,4.51.23,6.86.27,1.52.1,3.09.14,4.7.19q5.25.13,10.79.14c1.61,0,3.22,0,4.84,0h0c7.19,0,14.15-.14,20.74-.37,1.66,0,3.32-.13,4.93-.18,30.23-1.38,51.94-5.07,51.94-9.49,0-4-18.11-7.51-44.33-9.12-1.71-.1-3.41-.2-5.16-.28-7.84-.42-16.27-.65-25.08-.7h-4.88c-5.35,0-10.55.1-15.58.24-1.61,0-3.13.14-4.7.18-2.62.09-5.2.23-7.74.36-1.61.06-3.23.2-4.79.24C1247.42,1493.74,1230,1497.14,1230,1501.11Z"/><path fill="#6669b0" d="M1306.44,1410.86a44.67,44.67,0,0,1-8.9-7.34c-3.9-4-10-10.38-10-16.42.06-5,5.22-6.07,8.66-3.14,3.06,2.61,4.36,6.58,6.76,9.67,3,3.79,7.71,6.82,12.6,8.79,6.68-9.53,7.79-22.65,5.54-34.11-2.6-13.24-11.34-32.11-24.41-49.73a69.15,69.15,0,0,1-6,12.3c-2.46,4.08-6.42,11.86-11.12,13.52-5,1.77-6-2.85-5.25-6.6a1.51,1.51,0,0,1,.13-.6h0a9.35,9.35,0,0,1,.3-1,1.24,1.24,0,0,1,.56-.66c2.73-5.29,5.89-10.35,8.28-15.81a83.27,83.27,0,0,0,4-12.4c-11.45-12.89-25.21-24.16-40.52-30.66,3.11,6.45,5.26,13.76,7.24,20.14,2,6.53,7.39,20.43,2.41,26.83-1.36,1.75-4.17,2.88-6.29,1.69-3.47-1.95-3-9.09-3.11-12.29-.15-7.83-.18-14.6-2.72-22.22-2.22-6.61-5.84-12.5-9.76-18.19a65.15,65.15,0,0,0-29.93-.18c3,2.69,5.38,6,6,9.89.58,3.61-1.63,11.93-6.37,12.22-6.24.36-6.67-14.12-7.43-19.81a80.31,80.31,0,0,0-17.09,8.6,74.32,74.32,0,0,0-23,24.34,1.2,1.2,0,0,1,.23.59c2,15.84,22.24,21.32,34.28,27.43,3.74,1.9,17.75,8.46,15.94,14.12-1,3-6,3-8.31,2.56-6-1.12-11.45-5.93-16.14-9.58-10.83-8.4-21.53-16.5-30.48-26.67-9.9,21.18-12.15,45.58-11.8,63.63a1.39,1.39,0,0,1,1.08,0,47.8,47.8,0,0,0,22.55,3.55c4.79-.44,9.75-1.57,14.58-.86,4.06.59,10.41,5.55,5.85,9.61-3.9,3.46-12.59,2.63-17.35,2a82.72,82.72,0,0,1-26.49-8.44c.28,5.28.76,9.84,1.3,13.27a65.18,65.18,0,0,0,28.23,43.55,67.92,67.92,0,0,0,16,7.75c10.88-9.43,19.15-19.85,24-34,1.94-5.67,6-21.34,14-20.8,3.61.24,6.1,4.64,6.78,7.76,1.16,5.31-2.06,10.63-5,14.77-4.3,6.09-9,11.79-13.22,18-4.06,6-8.27,11.85-12.7,17.57a72.57,72.57,0,0,0,30.76-2.47c15.53-4.8,31.79-20.94,23.2-37.55C1271,1417.12,1291.55,1419.62,1306.44,1410.86Zm-137-44.09a4.54,4.54,0,0,1-.7.1,1.28,1.28,0,0,1-1.93.19c-.22-.22-.42-.45-.63-.69-1.64-1-2.68-3.21-3.18-5.11a1.18,1.18,0,0,1,.18-1,14.33,14.33,0,0,1-.39-3.06c0-2.43,1.11-5.17,4-4.66a9,9,0,0,1,6.8,7.21C1173.88,1362.53,1172.32,1365.89,1169.44,1366.77Zm101.44,3.89a4.47,4.47,0,0,1-6.69.56,7.94,7.94,0,0,1-2-8,1.17,1.17,0,0,1,.8-.85l.1-.07c2.47-1,5.83-1.08,8,.73C1273.45,1365.05,1272.68,1368.46,1270.88,1370.66Z"/><path fill="url(#b)" d="M1438.86,1319.29a108.76,108.76,0,0,0,26.18,6.38c4.94-17.07,4.18-35.64,2.28-53.43-6.29,6.41-13.17,12-21.72,16-7.16,3.35-19.46,9-25.85,1.53a1.33,1.33,0,0,1,0-1.84c6.93-5.71,16.15-5.15,24.34-7.71s16.86-8,22.41-15.1c-.17-1.47-.36-3-.54-4.41-1.65-13.15-3.94-26.19-6.55-39.17l-.35.73c-1.11,2.27-3.22,7.07-6.19,7.55-2.76.45-3.78-2.81-3.22-5,.85-3.28,4-5.92,5.31-9.09.77-1.91,1.47-3.85,2-5.82-2.21-10.32-4.58-20.6-6.94-30.87a1.34,1.34,0,0,0-1.61-.91c-10.2,1.41-20.51,2.84-30.8,4.52-11.19,11-19.17,24-20.48,40.11-.37,4.59,2.5,28.63-8.46,25.69-11.57-3.11-6.11-24.72-3.87-31.93,3.54-11.37,9.4-21.49,16.39-30.93-23.34,4.6-46.21,11.18-67.17,22.36-7.89,16.49-6.8,33.59,3.42,49.72,2.23,3.53,15.19,19.94,4.72,21.76-8.81,1.54-15.69-15.77-17.18-22.22-2.21-9.6-.91-19.53-.25-29.22a63.58,63.58,0,0,1,3.26-16.69c-.24.15-.5.27-.75.42-15.8,9.42-30.82,21.6-35.66,40.14a69.47,69.47,0,0,0-1.5,25.13,119.85,119.85,0,0,0,13.51,16.81c5.21,5.25,11.22,7.61,17.23,11.6,4.29,2.84,11.61,11.78,5.28,16.39-5.1,3.71-14.67-.83-19.54-2.87-2-.83-3.93-1.72-5.84-2.65-.78,50.19,42.93,24.22,42.93,24.45-.33,46,46.56,46.36,75.42,35.62-2.9-.54-5.8-1.08-8.71-1.56-5.75-1-11.61-1.28-17.32-2.41-6.21-1.24-14.86-5.13-13.59-13.07,1.1-6.84,10-1.31,13.26.49,11.22,6.19,24.35,11.9,37.42,11.23,1.39-.83,2.76-1.7,4.1-2.64a81.2,81.2,0,0,0,24.26-27.08,229.94,229.94,0,0,1-33.25-3c-8-1.38-20.62-3.51-24.44-11.85a1.32,1.32,0,0,1,1.12-2c9.61-.72,18.74,1.86,27.2,6.27,10.16,5.29,20.64,7.58,31.56,6.22a76.71,76.71,0,0,0,3.37-8.25c.06-.17.11-.34.16-.51a110.66,110.66,0,0,1-26.1-6.39C1436.61,1321.23,1437.28,1318.7,1438.86,1319.29ZM1421.59,1225a1,1,0,0,1,.61-.84,5,5,0,0,1,4.45-4.18c6.1-.93,10.35,6.26,5.27,10.43-2,1.61-4.85,2.6-7.32,1.74C1421.53,1231,1421.17,1227.75,1421.59,1225Zm-56.43,123.17a4.88,4.88,0,0,1-6.3.31,1.12,1.12,0,0,1,.26-1.92,7.07,7.07,0,0,1,1.75-4.72,3.71,3.71,0,0,1,5.84.75C1367.9,1344.51,1366.76,1346.81,1365.16,1348.13Zm5.25-98.67c-.49,3.06-2,7.57-5,9.07-3.66,1.79-5.14-2.76-5.56-5.48a1.21,1.21,0,0,1,0-.57,16.63,16.63,0,0,1-2-9.47c.6-4.63,5.22-5.83,9-3.63C1370.34,1241.43,1371,1245.76,1370.41,1249.46Zm34.53,48.74a5.58,5.58,0,0,1-6.39,1.11c-2.79-1.21-3.92-4.13-3.54-7a1.47,1.47,0,0,1,2-1.12,4.37,4.37,0,0,1,6.63-.63C1405.58,1292.36,1406.88,1295.92,1404.94,1298.2Z"/><path fill="url(#i)" d="M1217.14,1515.47a67.19,67.19,0,0,1,5.49,16.24c-11.07,4-23.41,4.44-35.28,4.14a47.2,47.2,0,0,0,9.52-14.55c1.87-4.69,5-12.75-.23-16.42a.93.93,0,0,0-1.23.09c-3.45,4.67-2.63,10.48-3.92,15.79a30.17,30.17,0,0,1-8.93,14.94l-2.94-.13c-8.79-.38-17.54-1.17-26.26-2.16l.46-.26c1.46-.82,4.53-2.4,4.71-4.3s-2-2.25-3.45-1.78c-2.13.7-3.73,2.83-5.76,3.82-1.23.59-2.49,1.12-3.76,1.58-6.94-.87-13.86-1.85-20.78-2.83a.83.83,0,0,1-.68-1c.44-6.53.89-13.12,1.51-19.71,6.75-7.64,15-13.33,25.58-15,3-.47,19.08.14,16.6-6.65-2.62-7.16-16.67-2.62-21.34-.83a70.64,70.64,0,0,0-19.69,11.92c1.92-15,5.18-29.78,11.57-43.6,10.54-5.82,21.91-6,33.09-.35,2.44,1.24,13.94,8.6,14.64,1.89.59-5.65-11.2-9.13-15.54-9.74-6.47-.92-13,.41-19.37,1.31a44.15,44.15,0,0,0-10.89,2.91c.08-.16.15-.33.24-.5,5.47-10.47,12.81-20.58,24.86-24.58a48.19,48.19,0,0,1,16.58-2.21,78.4,78.4,0,0,1,11.78,7.69c3.73,3,5.58,6.71,8.51,10.31,2.09,2.56,8.37,6.75,11.11,2.51,2.21-3.42-1.26-9.23-2.84-12.22-.65-1.21-1.33-2.39-2-3.56,33.2-3,18.12,25.93,18.26,25.92,30.43-2.53,33,27.1,27.23,45.9-.5-1.81-1-3.62-1.45-5.43-.91-3.59-1.41-7.28-2.43-10.84-1.12-3.86-4.11-9.14-9.31-7.92-4.48,1-.39,6.38,1,8.35,4.63,6.79,9,14.8,9.23,23.1-.48.92-1,1.83-1.55,2.72a53.19,53.19,0,0,1-16.76,16.72,139.36,139.36,0,0,0-3.59-20.88c-1.3-5-3.32-12.87-9-14.86a.88.88,0,0,0-1.24.81,30.78,30.78,0,0,0,5.46,16.88c4,6.17,6,12.68,5.64,19.64a50.71,50.71,0,0,1-5.3,2.56l-.33.12a67.47,67.47,0,0,0-5.49-16.18C1218.31,1513.94,1216.67,1514.51,1217.14,1515.47Zm-63.31-6.15a.72.72,0,0,0-.53.42,3.28,3.28,0,0,0-2.55,3c-.32,3.9,4.64,6.23,7.17,2.81a4.91,4.91,0,0,0,.79-4.72C1157.85,1509,1155.66,1508.9,1153.83,1509.32Zm78.84-41.91a3,3,0,0,0-.09-4,.76.76,0,0,0-1.26.26,4.85,4.85,0,0,0-3,1.34,2.3,2.3,0,0,0,.78,3.66A3,3,0,0,0,1232.67,1467.41Zm-65.08,8.3c2-.47,4.92-1.63,5.76-3.63,1-2.4-2.08-3.11-3.9-3.23a.81.81,0,0,0-.38,0,11.38,11.38,0,0,0-6.36-.81c-3,.62-3.61,3.6-2,5.87C1162.26,1476.07,1165.16,1476.27,1167.59,1475.71Zm33.94,19.38a3.42,3.42,0,0,0,.43-4.1,4.32,4.32,0,0,0-4.82-1.88.92.92,0,0,0-.65,1.32,2.7,2.7,0,0,0-.1,4.23C1197.7,1495.79,1200.12,1496.43,1201.53,1495.09Z"/><path fill="#6669b0" d="M1480.43,1408c-3.07-.18-6.15-.38-9.23-.63-6.25-.5-15,.54-20.16-3.73a1.42,1.42,0,0,1-.09-2.14c9.67-8.15,20.27.82,30.62,1.25a96.22,96.22,0,0,0,.54-23.36,56.79,56.79,0,0,0-3.89-16.72c-5.73,7.85-10.82,16.2-18.37,22.3-3,2.43-10.8,9.68-14.76,6.75-4.35-3.22,3.25-8.38,5.58-9.93,9.58-6.37,19-12.58,26.3-21.9a37.19,37.19,0,0,0-17.36-17.58,79.87,79.87,0,0,0-18-6c1.39,9.73-.12,24.16-9.1,26.57-6.34,1.69-10.32-5.72-10.74-11.57-.49-6.8,3.87-12.9,9.13-16.73a153.8,153.8,0,0,0-28.5-.35c-1.69.13-3.39.3-5.1.49a1.44,1.44,0,0,1-.16.55c-4.52,8.76-9.65,18.76-10.55,28.78-.33,3.72,1.23,8.62-.73,12.11-3.1,5.51-8.88,1-9.74-3.49-1.56-8.12,2.24-18.36,4.86-26,1.09-3.2,2.24-6.61,3.55-10-11.47,2.36-22.71,6.4-32.57,13.33a65.63,65.63,0,0,0-9.12,7.83c-1.24,9.88-.86,19.87,2.77,28.79,2.6,6.4,9.9,18.46,2.78,25.16-4.9,4.61-7.79-4.18-8.81-7.86-3.2-11.48-4.55-23.85-5.06-36a107.85,107.85,0,0,0-12.06,23.45,179.77,179.77,0,0,0-7.38,25.16c6,4.25,13.1,6,19.62,9.7,3,1.75,9.08,5.44,6.15,10.09-6.06,9.64-19.81-1.52-27.54-9.8-.64,7.79,1.91,14,7.34,19.61,11.74,12.2,30.15,16.14,44.43,5.09-.56,14.25,10.1,25.93,24,24,5-.71,9.13-3.22,12.79-6.58a68.85,68.85,0,0,1-9.72.36c-4.16-.14-11.25-.48-12.92-5.45-1.61-4.77,2.73-5,5.77-3.88,3.76,1.44,6.17,3.51,10.45,3.59,4.81.11,9.57-1.43,14.17-3.27,5.23-6.24,10.29-11.78,17.71-15.63a85.13,85.13,0,0,1,8.8-3.88c-5.83-.49-14.39-1.53-16.31-6.85-3.2-8.88,10.3-9.47,14.85-8.73,6.08,1,11.89,2.93,18.09,3.35a46.31,46.31,0,0,0,15.35-1.66c1-.75,2.05-1.52,3-2.37C1475.86,1420.12,1478.74,1414.36,1480.43,1408ZM1371,1414.53c-2.74-.09-4-3.39-4.36-5.88a12.52,12.52,0,0,1,1.13-7,1.38,1.38,0,0,1,.07-.62c.59-1.72,1.54-3.76,3.36-4.29a3.61,3.61,0,0,1,3.59,1.27c2.14,2.28,3,6.17,2.38,9.38C1376.61,1410.24,1374.15,1414.65,1371,1414.53Zm34.21-32.93c-1.54-3-.43-6.57,2-8.71a1.24,1.24,0,0,1,.76-.31c2.42-1.67,5.32-1.36,6.75,1.58a7.49,7.49,0,0,1-2.52,9.2A4.63,4.63,0,0,1,1405.17,1381.6Zm-5.41,62.13c-1.71,2.85-5.63,4.06-7.87,1.59-1.77-1.93-1.84-4.81-.91-7.28a1.27,1.27,0,0,1,0-1.93C1395.71,1432.07,1403.2,1438,1399.76,1443.73Z"/><path fill="#33308e" d="M1328.3,1510.78c1.66,0,3.32-.13,4.93-.18,1.71-5,3.55-9.91,5.76-14.74.6-1.3,1.2-2.59,1.85-3.87a180.17,180.17,0,0,1,50.59-62.55c2.4-1.92-1-5.29-3.41-3.4a183.65,183.65,0,0,0-51.56,63.87c-.28.6-.56,1.2-.78,1.8A147.59,147.59,0,0,0,1328.3,1510.78Z"/><path fill="#33308e" d="M1302.68,1511.11c1.61,0,3.22,0,4.84,0,.87-6.73,1.93-13.45,3.08-20.14,2-11.61,4.34-23.18,6.87-34.65,5.44-24.24,11.84-48.25,18.29-72.26,6.32-23.46,13.09-46.82,27.56-66.73,1.85-2.48-2.35-4.88-4.14-2.39-13.92,19.07-20.88,41.33-27,63.91-7.28,26.78-14.42,53.64-20.32,80.74-2.26,10.42-4.38,20.87-6.13,31.38C1304.57,1497.7,1303.55,1504.42,1302.68,1511.11Z"/><path fill="#33308e" d="M1245.3,1400.78a274.8,274.8,0,0,1,15.67,39.54c.64,1.94,1.2,3.87,1.75,5.81h0a369.65,369.65,0,0,1,10.14,45.9c1,6,1.84,12.17,2.58,18.25,1.57.09,3.18.18,4.84.23-.79-6.27-1.61-12.49-2.63-18.72a386.73,386.73,0,0,0-8.71-41.1c-.69-2.49-1.38-5-2.17-7.51a291.36,291.36,0,0,0-17.37-44.84C1248.12,1395.53,1244,1398,1245.3,1400.78Z"/><path fill="#33308e" d="M1200.7,1474.61c12.44-8.25,24.83-16.68,37.37-24.8,7-4.51,13.91-7.87,22.3-4.78a15.83,15.83,0,0,1,2.35,1.1,26.35,26.35,0,0,1,6.27,4.56,39.87,39.87,0,0,1,6.27,7.93c5.76,9.54,8.62,20.92,10.18,32.81.88,6.41,1.39,13,1.75,19.35,1.52.1,3.09.14,4.7.19-.41-6.45-.87-13.13-1.75-19.72-2.07-16.32-6.4-32.08-16.86-42.82a34.8,34.8,0,0,0-6.46-5.25,27.07,27.07,0,0,0-5.85-2.86,22.84,22.84,0,0,0-16,.24c-7.23,2.8-14,8.43-20.46,12.71-8.71,5.81-17.42,11.57-26.13,17.38C1195.9,1472.26,1198.21,1476.26,1200.7,1474.61Z"/><path fill="url(#j)" d="M520.5,516.74H201.08a35,35,0,0,0-35,35V685.38a35,35,0,0,0,35,35h228.1l52.9,63.6a6.84,6.84,0,0,0,12.33-4.09l-16-59.51H520.5a35,35,0,0,0,35-35V551.76A35,35,0,0,0,520.5,516.74Z"/><path fill="#fff" d="M263.93,624.75l14.38,4.56q-3.3,12-11,17.86T247.8,653q-14.62,0-24.05-10t-9.42-27.33q0-18.33,9.47-28.48t24.9-10.14q13.49,0,21.89,8,5,4.71,7.52,13.53l-14.68,3.5A15.17,15.17,0,0,0,248,589.73a16.74,16.74,0,0,0-13.25,5.86q-5.08,5.86-5.08,19,0,13.92,5,19.84a16.27,16.27,0,0,0,13,5.91,14.88,14.88,0,0,0,10.17-3.76Q262.08,632.82,263.93,624.75Z"/><path fill="#fff" d="M288,615.48q0-11.22,3.36-18.84a34.53,34.53,0,0,1,6.84-10.07,28.53,28.53,0,0,1,9.49-6.61,40.24,40.24,0,0,1,15.83-2.9q16.23,0,26,10.07t9.74,28q0,17.79-9.67,27.83t-25.85,10q-16.38,0-26.05-10T288,615.48Zm15.28-.5q0,12.46,5.76,18.92a19.82,19.82,0,0,0,29.19,0q5.69-6.39,5.68-19.16,0-12.62-5.54-18.84t-14.7-6.21q-9.17,0-14.78,6.29T303.31,615Z"/><path fill="#fff" d="M370.79,578.31H397.9q9.17,0,14,1.4A24.64,24.64,0,0,1,423,586.47a32.1,32.1,0,0,1,7,11.9,54,54,0,0,1,2.41,17.36,48.29,48.29,0,0,1-2.26,15.63,32.37,32.37,0,0,1-7.86,13,26.12,26.12,0,0,1-10.42,5.86,44.77,44.77,0,0,1-13.13,1.55H370.79Zm14.83,12.42v48.65H396.7a40.16,40.16,0,0,0,9-.7,13.64,13.64,0,0,0,6-3.06q2.39-2.16,3.88-7.09A47.56,47.56,0,0,0,417,615.08q0-8.52-1.51-13.07a16.75,16.75,0,0,0-4.2-7.12,14.19,14.19,0,0,0-6.87-3.46q-3.1-.69-12.17-.7Z"/><path fill="#fff" d="M444.94,651.75V578.31H499.4v12.42H459.77V607h36.87v12.37H459.77v20h41v12.37Z"/><rect width="377.29" height="198.38" x="1444.79" y="496.33" fill="url(#k)" rx="4.19" transform="rotate(180 1633.44 595.525)"/><path fill="#fff" d="M1523.39,631.85v-62h-22.13V557.28h59.26v12.61h-22.08v62Z"/><path fill="#fff" d="M1570.24,631.85V557.28h55.29v12.61h-40.24v16.54h37.44V599h-37.44v20.29H1627v12.57Z"/><path fill="#fff" d="M1635.91,607.59l14.65-1.43q1.32,7.38,5.36,10.84t10.91,3.46q7.28,0,11-3.08a9.15,9.15,0,0,0,3.69-7.2,6.8,6.8,0,0,0-1.55-4.5,12.45,12.45,0,0,0-5.42-3.23q-2.64-.91-12-3.26-12.11-3-17-7.37a19.58,19.58,0,0,1-3.64-25.67,20.31,20.31,0,0,1,9.31-7.55,37.27,37.27,0,0,1,14.67-2.59q14,0,21.14,6.15c4.73,4.1,7.21,9.59,7.45,16.43l-15.05.66q-1-5.75-4.15-8.27t-9.54-2.51q-6.56,0-10.27,2.7a5.4,5.4,0,0,0-2.39,4.62,5.71,5.71,0,0,0,2.23,4.53c1.9,1.6,6.52,3.25,13.84,5s12.74,3.52,16.25,5.36a21,21,0,0,1,8.24,7.58,23.46,23.46,0,0,1-.58,23.88,21.36,21.36,0,0,1-10.07,8.32q-6.51,2.71-16.23,2.72-14.15,0-21.72-6.54T1635.91,607.59Z"/><path fill="#fff" d="M1726,631.85v-62h-22.13V557.28h59.26v12.61h-22.07v62Z"/><path fill="#2a276f" d="M1428.24,829.63a45.27,45.27,0,0,0-7.64-.49h-.6c-42.28,1.21-231.43,18.7-369.81,230.62C911.81,847.84,722.71,830.32,680.44,829.1h-.06c-.2,0-8.25.53-8.25.53C475.4,844.1,319.45,1022.76,319.45,1240.32S475.4,1636.48,672.1,1651l8.28,0c42.27-1.17,231.43-18.66,369.81-230.58C1188.57,1632.32,1377.72,1649.81,1420,1651l8.27,0c196.71-14.47,352.65-193.13,352.65-410.63S1625,844.1,1428.24,829.63ZM957.62,1252.68C860.43,1462.19,704.41,1476.91,679,1477.91c-112.06-10.53-200.33-113.05-200.33-237.59,0-125.09,89-228,201.76-237.79v-.2c29.38,1.48,181.7,19.24,277.24,225.15l5.82,12.6Zm463.81,225.23c-25.47-1-181.48-15.72-278.67-225.23l-5.83-12.6,5.83-12.6c95.53-205.91,247.85-223.67,277.24-225.15v.2c112.75,9.76,201.76,112.7,201.76,237.79C1621.76,1364.86,1533.49,1467.38,1421.43,1477.91Z"/><polygon fill="#2a276f" points="1362.7 1650.98 1422.53 1650.98 1420.14 1630.49 1375.04 1625.88 1362.7 1650.98"/><polygon fill="#2a276f" points="623.08 1650.98 677.62 1650.98 678.95 1629.33 605.2 1616.35 623.08 1650.98"/><path fill="#d25927" d="M800.29,1449.61,788.52,1445c-53.06,28.57-97.07,32.39-109.57,32.88-78.7-7.39-145.62-60.2-178.52-134.1H443.07v113.88l27.21,75s226,51.93,230.27,51.93S800.29,1449.61,800.29,1449.61Z"/><path fill="#d25927" d="M1759.32,1099.62h0a1.43,1.43,0,0,1-.08-.22,430.63,430.63,0,0,0-35-75.48c-7.58-12.95-15.5-25-23.67-36.29C1584.81,823.54,1420,829.14,1420,829.14l39.25,86.7L1420,1002.33s91.85,6.92,149.11,83.12,68,172.14,32.4,254.88l91.14,63.17h57.25S1816.84,1264.23,1759.32,1099.62Z"/><polygon fill="#d25927" points="1363.3 829.14 1419.95 829.14 1439.88 846.59 1416.27 857.55 1390.36 847.17 1363.3 829.14"/><path fill="#6669b0" d="M1370.94,829.63a45.27,45.27,0,0,0-7.64-.49h-.6c-42.28,1.21-231.43,18.7-369.81,230.62C854.51,847.84,665.42,830.32,623.14,829.1h-.07c-.18,0-8.24.53-8.24.53C418.1,844.1,262.15,1022.76,262.15,1240.32S418.1,1636.48,614.8,1651l8.27,0c42.28-1.17,231.44-18.66,369.82-230.58,138.38,211.92,327.53,229.41,369.81,230.58l8.28,0c196.69-14.47,352.64-193.13,352.64-410.63S1567.67,844.1,1370.94,829.63ZM900.32,1252.68c-97.19,209.51-253.21,224.23-278.67,225.23-112.06-10.53-200.33-113.05-200.33-237.59,0-125.09,89-228,201.75-237.79v-.2c29.39,1.48,181.71,19.24,277.25,225.15l5.82,12.6Zm463.81,225.23c-25.47-1-181.48-15.72-278.67-225.23l-5.83-12.6,5.83-12.6c95.53-205.91,247.85-223.67,277.24-225.15v.2c112.75,9.76,201.76,112.7,201.76,237.79C1564.46,1364.86,1476.18,1467.38,1364.13,1477.91Z"/><path fill="#d25927" d="M1390.36,1473.71c-11,2.57-26.23,4.2-26.23,4.2l-33,18.73L1270.64,1528s-8,65.57-8,76c0,1.83,1.81,5.29,4.77,9.8-1.08-.48-2.13-1-3.21-1.53v-.1a413.78,413.78,0,0,1-54.89-28.87,399.69,399.69,0,0,1-48.41-35.7c-51.35-36.43-92.23-94.8-120.21-144.1S997.57,1314,997.57,1314c-11.43-23.65-22.67-48.33-33.91-73.92-30.94-70.29-67.55-119.55-103.45-154.18-77.68-71.94-159.53-81.36-159.53-81.36L642.4,929.09,705,830.9s92.67,2.29,204.19,78.78c6.74,4.53,13.27,9.24,19.61,14.05.22.21.47.35.7.55A424.58,424.58,0,0,1,973.37,963c1.75,1.64,87.26,80.68,140.23,224.36a.16.16,0,0,1,0,.08c7.83,17.24,15.63,34.83,23.53,52.69C1214.74,1416,1334.18,1461.78,1390.36,1473.71Z"/><path fill="#d25927" d="M647.5,830.9l32.88-1.8a261,261,0,0,1,40.6,3.32c20.55,3.51-6,27.16-6,27.16l-26.13,7.5-21.09-6.64s-13.53-7.65-15.52-10.25-3.58-8.65-3.58-8.65Z"/><path fill="url(#l)" d="M1364.13,1477.91s-180.14-1.19-284.5-237.83c-7.88-17.88-15.67-35.46-23.51-52.71l0-.07c-53-143.68-138.47-222.72-140.22-224.33A424.8,424.8,0,0,0,872,924.27h0l-.72-.52q-9.49-7.25-19.61-14.07C740.17,833.2,647.5,830.9,647.5,830.9l-62.61,98.21,58.3,75.43S725,1014,802.7,1085.9c35.92,34.62,72.52,83.91,103.44,154.18,11.26,25.6,22.49,50.26,33.91,73.92h0s60.65,160.73,163.39,233.58h0a405.18,405.18,0,0,0,103.31,64.59l0,.07c76.55,37.26,156,38.75,156,38.75l-40.65-80.19Z"/><path fill="url(#m)" d="M621.65,1477.91l45,81.34L623.07,1651s-206.52,2.3-317.86-220.14l88.68-6.62,49.18-80.41S487.53,1461.44,621.65,1477.91Z"/><path fill="url(#n)" d="M1702.07,1099.62h0c0-.07-.06-.14-.09-.22a429.83,429.83,0,0,0-35-75.48c-7.58-12.95-15.51-25-23.67-36.29C1527.56,823.54,1362.7,829.14,1362.7,829.14l39.24,86.7-39.24,86.49s91.85,6.92,149.11,83.12,68,172.14,32.4,254.88l148.39,63.17S1759.59,1264.23,1702.07,1099.62Z"/><path fill="#fed2a7" d="M676.43,1078.91c17.91,31.91,137,131.33,157.87,149.45,25.14,21.84,59.06,8.5,52.27-21.24-5.78-25.35-135.23-170.71-152.43-181.78C703.09,1005.36,654,1039,676.43,1078.91Z"/><path fill="url(#o)" d="M761.56,1187.35c-35.1-31.49-76-92.26-85.13-108.44-22.41-39.91,26.66-73.55,57.71-53.57,9.68,6.23,64.44,56.34,103.19,102.34C839,1145.69,796.58,1184.08,761.56,1187.35Z"/><path fill="url(#p)" d="M603,956.9s14.41,57.06-11.34,59.47-72.91,12.34-87.7,36.29S467.6,1232,499.22,1376c0,0,187.24-6.7,265.9-100.31,0,0,12.25-196.75-16.5-234.29-24-31.3-75.86-24.92-75.86-24.92s-15.55-11.3-12.43-39.33C668,908.73,603,956.9,603,956.9Z"/><path fill="url(#q)" d="M604.61,964.76c-.87-4.76-1.65-7.86-1.65-7.86s52.25-38.72,57.55,2.63Z"/><path fill="#d25927" d="M503.92,1052.66a46.47,46.47,0,0,1,12.78-13l21.43,143a102.36,102.36,0,0,0,63.53,80l103.59,41.06c-78.66,93.62-206,72.32-206,72.32C467.6,1232,489.13,1076.6,503.92,1052.66Z"/><path fill="#fff" d="M641,1061.75c-24.45,0-50.29-15.91-67.8-41.65,6.24-1.13,12.62-2,18.54-2.57a14.79,14.79,0,0,0,11.17-6.46c10.16-14.37,2.75-48,1.38-53.68,3.72-2.62,23-15.78,37.83-15.78,5.15,0,9.23,1.63,12.1,4.84,4.94,5.52,6.61,15.8,5,30.59-3.16,28.39,12.24,40,12.9,40.43l.38.27.46,0a97.7,97.7,0,0,1,11-.54c4.07,0,8.14.2,12.1.57-6.22,19.44-18.53,33.67-34.79,40.17a54.45,54.45,0,0,1-20.24,3.86Z"/><path fill="#204099" d="M642.11,942.78c4.87,0,8.54,1.45,11.22,4.44,4.71,5.27,6.28,15.25,4.67,29.7-3.23,29.05,12.7,41,13.38,41.5l.75.54.92-.11a96.79,96.79,0,0,1,10.87-.53c3.54,0,7.07.15,10.54.45-6.25,18.36-18.12,31.81-33.66,38a52.94,52.94,0,0,1-19.8,3.78c-23.59,0-48.54-15.11-65.81-39.64,5.66-1,11.36-1.75,16.65-2.24a15.94,15.94,0,0,0,12-7c10-14.22,3.49-46.28,1.75-53.85,4.84-3.37,22.76-15.12,36.5-15.12Zm0-2.34c-16.94,0-39.16,16.46-39.16,16.46s14.41,57.06-11.33,59.46c-5.87.55-12.9,1.5-20.4,2.91,17.86,27.12,44.38,43.66,69.78,43.66a55.34,55.34,0,0,0,20.67-4c17.62-7.06,30-22.6,35.91-42.27a126,126,0,0,0-13.66-.74,98.81,98.81,0,0,0-11.16.55s-15.54-11.31-12.43-39.34c3.17-28.43-6.19-36.74-18.22-36.74Z"/><path fill="#fed2a7" d="M571.22,1019.27c22.82,34.64,59.75,52,90.45,39.71,17.62-7.06,30-22.6,35.91-42.27a118.82,118.82,0,0,0-24.82-.19s-15.54-11.31-12.43-39.34C668,908.72,603,956.9,603,956.9s14.41,57.06-11.33,59.46C585.75,1016.91,578.72,1017.86,571.22,1019.27Z"/><path fill="#fbbb8f" d="M591.62,1016.36C617.36,1014,603,956.9,603,956.9s3.35-2.48,8.43-5.51l2.52,26.89a67,67,0,0,0,73,60.52h0A57,57,0,0,1,661.67,1059c-30.7,12.3-67.63-5.07-90.45-39.71C578.72,1017.86,585.75,1016.91,591.62,1016.36Z"/><rect width="2.12" height="21.2" x="699.36" y="911.97" fill="#2a276f" transform="rotate(-83.22 700.356 922.556)"/><path fill="#fed2a7" d="M703.8,881.4l-9.55,80.38c-2.81,23.71-25.35,40.52-50.34,37.55h0c-25-3-43-24.59-40.14-48.3l.23-2s-25.67-4.89-22.54-31.2,19.1-13.52,19.1-13.52l4.13-34.71Z"/><path fill="#fbbb8f" d="M600.56,904.34l4.13-34.71,35.19,4.17c0,.26-.1.51-.13.76l-10.81,91c-1.89,15.9,11.45,30.57,27,31.86a28.21,28.21,0,0,0,13.5-2.17,46.8,46.8,0,0,1-25.49,4.09c-25-3-43-24.59-40.14-48.3l.23-2s-25.67-4.89-22.54-31.2S600.56,904.34,600.56,904.34Z"/><path fill="#2a276f" d="M601.09,905.29s4.78,24.46,13.23-3.55,17.13-25.72,48.87-19.81,78.19-.67,65.61-42.14c-12.36-40.77-84.23-20.25-84.23-20.25s-48.29-21.1-61.4,17.46S601.09,905.29,601.09,905.29Z"/><path fill="#fed2a7" d="M1137,1385.88l8-33.42c36.55,13.81,69.53,15.49,60.62-38.92-4.11-25.06,25-36.21,25-36.21L1252,1407.41s-3.14,13.81-36.64,0C1178.94,1392.52,1137,1385.88,1137,1385.88Z"/><path fill="#2a276f" d="M1216.38,1365.67c-8.92-6.94-21.86,4.5-24.4-6.93,12-4.51,18.19-17.67,13.69-45.2-4.11-25.06,25-36.21,25-36.21L1252,1407.41s-3,13-33.59,1.26C1216.12,1395,1229.85,1376.14,1216.38,1365.67Z"/><path fill="#413c97" d="M501.93,1376.21c6.41,68.56,82.15,106.92,162.71,76.16s82-93.94,200-142.25c0,0,35.72-70.33-20-78.75S501.93,1376.21,501.93,1376.21Z"/><path fill="#413c97" d="M858.21,1234.85s269.27,106.13,313.65,118c0,0-4.63,43.73-22.41,80.8,0,0-276.33-73.9-305.21-89.39C783.86,1311.87,858.21,1234.85,858.21,1234.85Z"/><rect width="287.29" height="15.17" x="736.17" y="1230.3" fill="#cbd3eb" transform="rotate(-5.34 879.075 1236.924)"/><path fill="#cbd3eb" d="M737.5,1258.79l-131.66,12.29-.8-8.49a6.64,6.64,0,0,1,6-7.22l125.07-11.68Z"/><path fill="#cbd3eb" d="M1014.07,1217.72l-284.9,26.61,21.12-178.91a10.77,10.77,0,0,1,9.5-9.72l256.58-24c10.18-1,18.67,8.4,17.39,19.17Z"/><path fill="url(#r)" d="M1021,1217.08l-284.91,26.61,21.13-178.92a10.79,10.79,0,0,1,9.49-9.72l262-24.47c7.41-.69,13.59,6.12,12.67,14Z"/><polygon fill="#dbe6f5" points="891.94 1043.35 989.38 1220.03 952.67 1223.46 852.25 1047.06 891.94 1043.35" opacity=".34"/><polygon fill="#dbe6f5" points="831.98 1048.95 929.41 1225.63 915.12 1226.97 814.68 1050.57 831.98 1048.95" opacity=".34"/><path fill="#413c97" d="M664.64,1452.37s176.38-21,231.24-37.92c26.45-8.16,113.94-54,74-103.68S773.22,1339.66,664.64,1452.37Z"/><path fill="#2a276f" d="M952.52,1298.86c-22.93,2.65-40.21,18.61-59.66,31.26-10,6.47-80.56,49.82-74.63,60.28,9.23,16.32,54.65,11.92,88.84,6.73a30.71,30.71,0,0,0,12.49,7.15,155.13,155.13,0,0,1-23.68,10.17c-54.86,16.92-231.24,37.92-231.24,37.92C761.34,1352,894.59,1278.14,952.52,1298.86Z"/><path fill="#fed2a7" d="M1098.86,1715.38c-30.13-10.63-43.73-59.57-50.21-85.79l-39.93,14.34s22.68,45,20.24,75.37,6.24,27.64,6.24,27.64l103.21,2.12S1129,1726,1098.86,1715.38Z"/><path fill="#2a276f" d="M1098.86,1715.38c-9.1-3.21-16.67-9.92-23-18.44-4.1-6-24.78.12-28.43,11.49,0,0-8.46,5.82-18.28,4.7,0,2.11,0,4.2-.17,6.17-2.45,30.32,6.24,27.64,6.24,27.64l103.21,2.12S1129,1726,1098.86,1715.38Z"/><path fill="#413c97" d="M976.29,1321s68.22,251.2,92.63,328.57c0,0-38.35,23.51-67.14,21.23,0,0-51.42-100.53-68.45-138.18-33.53-74.14-60.58-121.81-31.34-162.87C922.63,1340.76,976.29,1321,976.29,1321Z"/><path fill="#fed2a7" d="M511.35,1043.88c-26.75,24.95-95.15,164.2-107.81,188.76-15.26,29.61,5.73,59.4,33,45.77,23.24-11.63,133.82-171.82,140.49-191.15C589.13,1052.36,544.81,1012.66,511.35,1043.88Z"/><path fill="url(#s)" d="M445.19,1142.51c22.95-43.09,52.07-85.49,66.16-98.63,33.46-31.22,77.78,8.48,65.71,43.38-3,8.71-24.81,51.66-52.54,91.13C486.06,1175,449.1,1148.8,445.19,1142.51Z"/><path fill="#fed2a7" d="M422.77,1225.58c46,.76,182.85,45.87,209.65,36.85s48.26-29.73,62.29-12.79c14.33,17.28,11.68,36.08,5.92,55.89-3.79,13-27.38,7.59-57.45-1.75s-165.88-5.35-211.47-12.7C386.53,1283.8,391.68,1225.06,422.77,1225.58Z"/><path fill="#fed2a7" d="M454.07,1229.5l-2.37,5.84s-38.19,23.92-39.13,22.89-9.5-14.56-9.5-14.56,4.67-16.16,9.85-23.79S454.07,1229.5,454.07,1229.5Z"/><path fill="#2a276f" d="M621.94,912.88c1.09-9.16,9-13.34,22.2-11.77s19.91,7.48,18.82,16.65c-1.17,9.92-9.44,23.82-23.43,22.16S620.77,922.81,621.94,912.88Zm2.11.26c-1.07,9.07,3.18,23.18,15.73,24.67s20-11.24,21.07-20.3c1.19-10-8.57-13.29-17-14.29S625.24,903.14,624.05,913.14Z"/><path fill="#2a276f" d="M671,918.71c1.09-9.16,9-13.34,22.2-11.77s19.91,7.49,18.82,16.65c-1.17,9.92-9.43,23.82-23.43,22.16S669.85,928.64,671,918.71Zm2.12.26c-1.08,9.07,3.17,23.18,15.72,24.67s20-11.24,21.08-20.3c1.18-10-8.57-13.29-17-14.28S674.32,909,673.14,919Z"/><rect width="2.12" height="10.38" x="666.1" y="911.05" fill="#2a276f" transform="rotate(-83.21 667.225 916.255)"/><rect width="2.12" height="21.2" x="612.21" y="901.62" fill="#2a276f" transform="rotate(-83 616.738 915.193)"/><path fill="#fff" d="M754.86,658.16A11.94,11.94,0,0,1,743,646.23V260.34a15.76,15.76,0,0,1,15.73-15.75H1288.4a15.76,15.76,0,0,1,15.75,15.73V646.23a12,12,0,0,1-11.93,11.93Z"/><path fill="url(#t)" d="M1306,303.45h-565V260.34a17.64,17.64,0,0,1,17.64-17.64H1288.4A17.63,17.63,0,0,1,1306,260.34Z"/><path fill="#cbd3eb" d="M838.23,273.07a9.33,9.33,0,1,1,9.33,9.33A9.33,9.33,0,0,1,838.23,273.07Z"/><circle cx="811.66" cy="273.07" r="9.33" fill="url(#u)"/><path fill="#fff" d="M775.76,281.56a8.49,8.49,0,1,1,8.48-8.49A8.49,8.49,0,0,1,775.76,281.56Z"/><polygon fill="#fff" points="1272.79 276.26 1266.2 282.86 1262.78 279.45 1269.38 272.85 1262.78 266.25 1266.2 262.84 1272.79 269.44 1279.39 262.84 1282.81 266.25 1276.21 272.85 1282.81 279.45 1279.39 282.86 1272.79 276.26"/><path fill="#2a276f" d="M1266.2,264.05l5.39,5.39,1.2,1.2,1.21-1.2,5.39-5.39,2.21,2.2-5.39,5.4-1.2,1.2,1.2,1.21,5.39,5.39-2.21,2.21-5.39-5.39-1.21-1.21-1.2,1.21-5.39,5.39-2.21-2.21,5.39-5.39,1.2-1.21-1.2-1.2-5.39-5.4,2.21-2.2Zm13.19-2.41-6.6,6.59-6.59-6.59-4.62,4.61,6.6,6.6-6.6,6.6,4.62,4.62,6.59-6.6,6.6,6.6,4.62-4.62-6.6-6.6,6.6-6.6-4.62-4.61Z"/><path fill="#2a276f" d="M936.23,384.15v.72l-59.79-.62,29.79-50.47,2.75,1.38A56.65,56.65,0,0,1,936.23,384.15Z"/><path fill="url(#v)" d="M789.42,398.76c0,1,0,1.94,0,2.9a57.82,57.82,0,0,0,8.18,27.19,54.74,54.74,0,0,0,3.43,5.1c.17.22.33.44.51.65,8.7,11.27,21.43,19.1,36,20.65a83.35,83.35,0,0,0,21.07-.25l1.27-.19c27.84-4.7,40.78-25.22,44.3-44.45.07-.42.15-.84.21-1.25a59.46,59.46,0,0,0,.76-7.26c.05-.84.08-1.71.09-2.56l-51.45-.6h-1.26l-3.35,0-6.51-44-.19-1.24-.06-.42-.49-3.35-1-6.88-3.74.74c-24.65,3.56-44.11,23.79-47.28,48.19A58,58,0,0,0,789.42,398.76Z"/><path fill="#6669b0" d="M856.05,391.36l-8.82-60.45h0l3.71-.73a55.82,55.82,0,0,1,37.08,7.5Z"/><polygon fill="#2a276f" points="956.99 343.58 956.99 348.56 1008.08 348.56 1008.13 343.58 956.99 343.58"/><polygon fill="#2a276f" points="956.99 358.56 956.99 363.54 1049.29 363.54 1049.35 358.56 956.99 358.56"/><polygon fill="#2a276f" points="956.99 373.55 956.99 378.53 1042.68 378.53 1042.74 373.55 956.99 373.55"/><polygon fill="#2a276f" points="1013.42 348.56 1029.19 348.56 1029.25 343.58 1013.48 343.58 1013.42 348.56"/><polygon fill="#2a276f" points="956.99 387.55 956.99 392.53 1008.08 392.53 1008.13 387.55 956.99 387.55"/><polygon fill="#2a276f" points="956.99 402.53 956.99 407.51 1049.29 407.51 1049.35 402.53 956.99 402.53"/><polygon fill="#2a276f" points="956.99 417.51 956.99 422.49 1042.68 422.49 1042.74 417.51 956.99 417.51"/><polygon fill="#2a276f" points="1013.42 392.53 1029.19 392.53 1029.25 387.55 1013.48 387.55 1013.42 392.53"/><rect width="32.83" height="30.18" x="1147.68" y="424.28" fill="#6669b0"/><rect width="32.83" height="18.65" x="1100.46" y="435.82" fill="url(#w)"/><rect width="32.83" height="49.29" x="1192.63" y="405.17" fill="#2a276f"/><rect width="32.83" height="68.05" x="1237.59" y="386.41" fill="url(#x)"/><path fill="url(#y)" d="M1097,423.59a2.45,2.45,0,0,1-1.58-.41,2.09,2.09,0,0,1-.5-3.06l23.07-29.6a2.48,2.48,0,0,1,2.81-.76l27.29,10.57,21.45-34.68a2.33,2.33,0,0,1,1.58-1.07,2.38,2.38,0,0,1,1.89.4l27.1,19.35L1216,348.89a2.36,2.36,0,0,1,1.35-1.22,2.45,2.45,0,0,1,1.86.08l25.27,11.52,17.08-25.92a2.46,2.46,0,0,1,3.23-.76,2.1,2.1,0,0,1,.77,3l-18.21,27.65a2.47,2.47,0,0,1-3,.85l-24.94-11.38-16.16,35.92a2.33,2.33,0,0,1-1.57,1.29,2.49,2.49,0,0,1-2-.37L1172.21,370l-21.14,34.2a2.46,2.46,0,0,1-3,.94l-27.48-10.64-22,28.19A2.43,2.43,0,0,1,1097,423.59Z"/><path fill="url(#z)" d="M1269.57,346.51a2.31,2.31,0,0,1-2.47-1.66l-2.95-11.55L1250,337.78a2.37,2.37,0,0,1-3-1.37,2.2,2.2,0,0,1,1.5-2.79l16.54-5.25a2.47,2.47,0,0,1,1.87.14,2.2,2.2,0,0,1,1.14,1.4l3.55,13.88a2.22,2.22,0,0,1-1.74,2.66A2.25,2.25,0,0,1,1269.57,346.51Z"/><path fill="url(#A)" d="M810.49,631.85h415s.42-97.32-25-95-24.16,63.36-42.44,69.08-37.6-48.85-62.07-47.33c-15.19,1-39.35,39-56.9,39.32-21.64.37-36.57-26.34-56.38-24-11.06,1.32-32.21,30.56-99.79,25-20.45-1.7-41,3.66-55.06,14.81C815.78,623.25,810.49,631.85,810.49,631.85Z"/><path fill="url(#B)" d="M1057.57,530.52h-242c-4.5,0-8.14-2.69-8.14-6h0c0-3.31,3.64-6,8.14-6h242c4.49,0,8.14,2.69,8.14,6h0C1065.71,527.83,1062.06,530.52,1057.57,530.52Z"/><path fill="#2a276f" d="M980.92,548.8H815.58c-4.5,0-8.14-2.69-8.14-6h0c0-3.31,3.64-6,8.14-6H980.92c4.5,0,8.15,2.69,8.15,6h0C989.07,546.11,985.42,548.8,980.92,548.8Z"/></svg>